<?xml version="1.0" encoding="UTF-8" standalone="no"?><!-- Generator: Gravit.io --><svg xmlns="http://www.w3.org/2000/svg" xmlns:xlink="http://www.w3.org/1999/xlink" style="isolation:isolate" viewBox="0 0 32 32" width="32pt" height="32pt"><defs><clipPath id="_clipPath_ATuR7o5UpJCT04sCbR6nkg16qbPqYXCC"><rect width="32" height="32"/></clipPath></defs><g clip-path="url(#_clipPath_ATuR7o5UpJCT04sCbR6nkg16qbPqYXCC)"><g><circle vector-effect="non-scaling-stroke" cx="16" cy="16.499999999999996" r="10" fill="rgb(37,175,244)"/><path d=" M 22.092 24 L 18.092 22.105 L 14.092 24 L 14.092 13.263 C 14.092 12.568 14.645 12 15.322 12 L 20.861 12 C 21.538 12 22.092 12.568 22.092 13.263 L 22.092 24 Z " fill="rgb(244,67,54)"/><g><path d=" M 15.957 9.73 C 15.75 9.782 15.494 9.894 15.398 9.975 C 15.265 10.087 15.167 10.119 15.042 10.093 C 14.892 10.06 14.6 10.06 14.449 10.092 C 14.388 10.106 14.239 10.133 14.12 10.154 C 13.884 10.194 13.727 10.255 13.404 10.428 C 13.133 10.574 12.79 10.913 12.588 11.237 C 12.504 11.371 12.331 11.725 12.331 11.764 C 12.33 11.783 12.307 11.849 12.279 11.91 C 12.251 11.972 12.207 12.134 12.18 12.272 C 12.154 12.409 12.114 12.605 12.091 12.708 C 12.028 12.994 12.026 14.339 12.089 14.598 C 12.13 14.764 12.13 14.786 12.096 14.824 C 12.074 14.848 12.057 14.878 12.057 14.891 C 12.057 14.905 12.037 14.938 12.012 14.964 C 11.922 15.061 11.802 15.343 11.742 15.598 C 11.632 16.064 11.588 18.834 11.689 18.987 C 11.711 19.021 11.745 19.111 11.765 19.187 C 11.962 19.95 12.965 20.503 13.794 20.305 C 14.155 20.218 14.637 19.952 14.694 19.807 C 14.738 19.694 14.874 19.654 15.205 19.658 C 15.406 19.66 15.601 19.648 15.708 19.626 C 15.803 19.606 15.949 19.582 16.031 19.573 C 16.114 19.564 16.241 19.529 16.315 19.496 C 16.388 19.462 16.467 19.434 16.489 19.434 C 16.546 19.431 17.106 19.14 17.185 19.073 C 17.208 19.052 17.328 18.953 17.452 18.853 C 17.655 18.688 17.809 18.534 17.94 18.364 C 17.967 18.329 18.021 18.262 18.06 18.214 C 18.099 18.166 18.15 18.088 18.172 18.04 C 18.195 17.992 18.253 17.88 18.301 17.791 C 18.35 17.702 18.41 17.561 18.435 17.479 C 18.461 17.397 18.499 17.282 18.521 17.225 C 18.625 16.944 18.61 15.942 18.497 15.658 C 18.463 15.575 18.436 15.492 18.436 15.474 C 18.436 15.409 18.165 14.901 18.081 14.808 C 17.993 14.71 17.957 14.578 17.985 14.455 C 18.12 13.858 18.206 11.133 18.097 10.926 C 18.068 10.871 18.03 10.782 18.012 10.727 C 17.995 10.672 17.957 10.597 17.928 10.559 C 17.899 10.522 17.838 10.433 17.791 10.36 C 17.745 10.288 17.656 10.186 17.592 10.134 C 17.529 10.083 17.436 10.007 17.386 9.966 C 17.336 9.925 17.286 9.892 17.274 9.892 C 17.262 9.892 17.207 9.868 17.152 9.838 C 16.854 9.677 16.348 9.631 15.957 9.73 Z  M 16.619 11.09 C 16.794 11.214 16.794 11.211 16.765 12.382 C 16.725 13.985 16.712 14.076 16.508 14.214 C 16.221 14.41 15.966 14.246 15.908 13.829 C 15.888 13.685 15.855 13.518 15.833 13.458 C 15.812 13.398 15.795 13.331 15.795 13.308 C 15.795 13.175 15.569 12.821 15.327 12.576 C 14.765 12.005 14.352 12.136 14.262 12.915 C 14.242 13.082 14.208 13.314 14.186 13.43 C 14.081 13.987 14.297 14.532 14.645 14.59 C 14.695 14.598 14.825 14.628 14.935 14.656 C 15.045 14.683 15.21 14.716 15.303 14.728 C 15.508 14.754 15.848 14.854 16.071 14.952 C 16.161 14.992 16.244 15.025 16.256 15.025 C 16.268 15.025 16.318 15.051 16.366 15.083 C 16.415 15.115 16.505 15.173 16.567 15.212 C 16.819 15.372 17.132 15.789 17.174 16.022 C 17.334 16.904 17.048 17.545 16.283 18.019 C 16.207 18.066 15.923 18.189 15.89 18.189 C 15.869 18.189 15.786 18.213 15.705 18.242 C 15.504 18.314 15.076 18.32 14.86 18.254 C 14.778 18.229 14.649 18.194 14.574 18.176 C 14.408 18.138 14.135 18.026 14.053 17.962 C 13.987 17.91 13.876 17.901 13.833 17.944 C 13.813 17.964 13.809 18.074 13.819 18.314 L 13.834 18.656 L 13.756 18.769 C 13.601 18.993 13.424 19.041 13.222 18.913 C 13.01 18.779 13.02 18.862 13.035 17.287 L 13.048 15.899 L 13.115 15.784 C 13.259 15.538 13.521 15.494 13.72 15.682 L 13.835 15.79 L 13.855 16.101 C 13.881 16.516 14.008 16.844 14.213 17.025 C 14.635 17.397 14.825 17.479 15.259 17.479 L 15.608 17.479 L 15.795 17.382 C 16.187 17.178 16.51 16.715 16.456 16.431 C 16.413 16.199 16.157 15.822 16.043 15.822 C 16.028 15.822 15.98 15.795 15.936 15.763 C 15.893 15.73 15.819 15.695 15.773 15.685 C 15.727 15.676 15.643 15.647 15.587 15.623 C 15.53 15.598 15.433 15.57 15.371 15.561 C 15.309 15.552 15.188 15.522 15.1 15.496 C 15.013 15.47 14.84 15.437 14.715 15.423 C 14.57 15.406 14.441 15.375 14.358 15.335 C 14.286 15.302 14.213 15.274 14.195 15.274 C 14.112 15.272 13.789 15.012 13.689 14.865 C 13.426 14.477 13.358 14.064 13.419 13.231 C 13.446 12.867 13.471 12.694 13.516 12.542 C 13.55 12.43 13.577 12.325 13.577 12.307 C 13.577 12.218 13.782 11.867 13.907 11.742 C 14.253 11.396 14.859 11.325 15.321 11.575 C 15.558 11.703 15.622 11.745 15.731 11.846 C 15.944 12.042 15.985 12.006 16 11.611 C 16.02 11.095 16.296 10.863 16.619 11.09 Z  M 9.946 18.463 C 9.946 18.525 9.951 18.55 9.957 18.519 C 9.963 18.489 9.963 18.438 9.957 18.407 C 9.951 18.377 9.946 18.402 9.946 18.463 Z  M 19.042 19.595 C 19.042 19.635 19.096 19.632 19.139 19.589 C 19.162 19.566 19.162 19.56 19.139 19.56 C 19.122 19.56 19.109 19.572 19.109 19.588 C 19.109 19.608 19.1 19.608 19.075 19.588 C 19.051 19.567 19.042 19.569 19.042 19.595 Z  M 16.717 21.08 C 16.717 21.111 16.743 21.111 16.791 21.08 C 16.822 21.06 16.818 21.055 16.773 21.055 C 16.742 21.055 16.717 21.066 16.717 21.08 Z  M 15.233 21.452 C 15.241 21.465 15.229 21.486 15.207 21.498 C 15.182 21.512 15.176 21.528 15.191 21.537 C 15.205 21.546 15.223 21.535 15.231 21.514 C 15.24 21.493 15.256 21.481 15.267 21.488 C 15.279 21.495 15.288 21.485 15.288 21.465 C 15.288 21.445 15.272 21.429 15.253 21.429 C 15.234 21.429 15.225 21.439 15.233 21.452 Z " fill-rule="evenodd" fill="rgb(244,166,56)"/><path d=" M 15.817 8.009 C 15.808 8.018 15.758 8.027 15.705 8.03 C 15.622 8.035 15.608 8.044 15.61 8.092 C 15.612 8.145 15.602 8.148 15.423 8.15 C 15.138 8.152 15.047 8.18 15.047 8.263 C 15.047 8.286 15.017 8.297 14.958 8.297 C 14.852 8.297 14.773 8.335 14.773 8.385 C 14.773 8.416 14.716 8.422 14.443 8.422 C 13.808 8.423 13.677 8.443 13.677 8.537 C 13.677 8.563 13.636 8.571 13.513 8.571 C 13.339 8.571 13.253 8.6 13.253 8.659 C 13.253 8.692 13.129 8.712 13.013 8.699 C 12.998 8.697 12.949 8.729 12.905 8.77 C 12.855 8.817 12.798 8.845 12.754 8.845 C 12.654 8.845 12.556 8.888 12.556 8.93 C 12.556 8.95 12.521 8.974 12.479 8.983 C 12.419 8.996 12.404 9.01 12.414 9.047 C 12.429 9.106 12.407 9.12 12.296 9.124 C 12.248 9.126 12.214 9.136 12.22 9.146 C 12.226 9.156 12.214 9.171 12.193 9.179 C 12.168 9.188 12.16 9.184 12.172 9.165 C 12.183 9.148 12.178 9.144 12.161 9.155 C 12.114 9.183 12.126 9.244 12.176 9.229 C 12.2 9.222 12.192 9.232 12.159 9.252 C 12.126 9.271 12.079 9.282 12.055 9.276 C 12.022 9.267 12.005 9.282 11.994 9.327 C 11.984 9.367 11.957 9.394 11.924 9.398 C 11.886 9.404 11.868 9.427 11.862 9.475 C 11.856 9.532 11.843 9.543 11.78 9.543 C 11.735 9.543 11.708 9.555 11.71 9.574 C 11.719 9.644 11.706 9.668 11.658 9.668 C 11.627 9.668 11.596 9.694 11.578 9.736 C 11.545 9.811 11.509 9.845 11.481 9.828 C 11.456 9.812 11.435 9.851 11.429 9.925 C 11.425 9.975 11.413 9.984 11.366 9.976 C 11.316 9.967 11.31 9.974 11.32 10.029 C 11.327 10.065 11.321 10.086 11.308 10.078 C 11.295 10.07 11.285 10.097 11.285 10.138 C 11.285 10.196 11.273 10.214 11.229 10.22 C 11.189 10.226 11.17 10.248 11.165 10.297 C 11.16 10.336 11.142 10.365 11.121 10.365 C 11.102 10.365 11.085 10.377 11.085 10.392 C 11.085 10.406 11.075 10.412 11.063 10.405 C 11.038 10.389 11.012 10.472 11.011 10.567 C 11.011 10.611 10.991 10.64 10.948 10.66 C 10.914 10.675 10.886 10.706 10.886 10.728 C 10.886 10.749 10.898 10.76 10.913 10.75 C 10.932 10.739 10.932 10.748 10.914 10.78 C 10.9 10.806 10.881 10.871 10.871 10.926 C 10.86 10.985 10.849 11.007 10.843 10.981 C 10.83 10.925 10.771 10.941 10.781 10.997 C 10.785 11.02 10.777 11.038 10.763 11.038 C 10.748 11.038 10.737 11.097 10.737 11.176 C 10.737 11.284 10.725 11.326 10.683 11.369 C 10.654 11.4 10.638 11.408 10.649 11.387 C 10.664 11.359 10.662 11.356 10.639 11.377 C 10.622 11.393 10.607 11.489 10.605 11.614 C 10.6 11.796 10.592 11.829 10.545 11.868 C 10.51 11.895 10.496 11.927 10.505 11.953 C 10.515 11.978 10.511 11.987 10.494 11.977 C 10.475 11.965 10.466 12.074 10.464 12.338 C 10.461 12.706 10.459 12.717 10.399 12.773 C 10.334 12.833 10.317 12.907 10.369 12.907 C 10.391 12.908 10.39 12.914 10.366 12.93 C 10.345 12.943 10.336 12.976 10.343 13.016 C 10.35 13.051 10.346 13.074 10.334 13.067 C 10.323 13.06 10.314 13.393 10.315 13.809 C 10.315 14.224 10.315 14.582 10.314 14.605 C 10.314 14.627 10.285 14.653 10.251 14.661 C 10.19 14.677 10.188 14.683 10.188 14.902 C 10.188 15.121 10.186 15.13 10.115 15.19 L 10.041 15.252 L 10.04 16.075 C 10.038 16.896 10.038 16.899 9.982 16.944 C 9.878 17.028 9.887 18.878 9.991 18.905 C 10.034 18.917 10.065 19.229 10.042 19.426 C 10.04 19.441 10.055 19.467 10.076 19.485 C 10.097 19.502 10.114 19.507 10.114 19.496 C 10.114 19.485 10.13 19.497 10.15 19.524 C 10.174 19.555 10.187 19.632 10.188 19.74 C 10.188 19.863 10.197 19.909 10.222 19.909 C 10.265 19.909 10.323 20.018 10.324 20.103 C 10.325 20.157 10.339 20.172 10.394 20.178 C 10.459 20.186 10.463 20.192 10.463 20.321 C 10.463 20.447 10.467 20.457 10.522 20.457 C 10.568 20.457 10.584 20.474 10.596 20.532 C 10.608 20.591 10.624 20.606 10.674 20.606 C 10.73 20.606 10.737 20.616 10.737 20.704 C 10.737 20.76 10.753 20.819 10.776 20.841 C 10.823 20.888 10.846 20.892 10.821 20.849 C 10.811 20.832 10.826 20.839 10.855 20.864 C 10.886 20.891 10.903 20.931 10.898 20.96 C 10.89 21.002 10.898 21.008 10.949 20.999 C 11.008 20.987 11.022 21.003 11.013 21.073 C 11.01 21.091 11.021 21.105 11.036 21.105 C 11.051 21.105 11.057 21.114 11.05 21.126 C 11.043 21.138 11.063 21.148 11.095 21.148 C 11.129 21.148 11.187 21.183 11.234 21.232 C 11.278 21.279 11.319 21.314 11.325 21.31 C 11.367 21.284 11.432 21.312 11.439 21.359 C 11.444 21.394 11.47 21.419 11.509 21.429 C 11.548 21.438 11.574 21.463 11.579 21.498 C 11.584 21.528 11.6 21.555 11.617 21.557 C 11.633 21.559 11.657 21.563 11.671 21.566 C 11.685 21.57 11.732 21.574 11.777 21.575 C 11.846 21.578 11.858 21.587 11.858 21.64 C 11.858 21.699 11.865 21.703 11.995 21.703 C 12.126 21.703 12.147 21.716 12.134 21.788 C 12.125 21.832 12.197 21.851 12.369 21.852 C 12.526 21.852 12.546 21.858 12.568 21.908 C 12.601 21.984 12.706 21.995 13.415 21.999 C 14.049 22.003 14.15 21.993 14.15 21.926 C 14.15 21.867 14.198 21.853 14.395 21.85 C 14.61 21.846 14.68 21.826 14.711 21.758 C 14.733 21.708 14.826 21.683 14.929 21.7 C 14.939 21.701 14.948 21.689 14.948 21.671 C 14.948 21.65 14.955 21.652 14.971 21.676 C 14.989 21.705 14.998 21.698 15.01 21.647 C 15.023 21.595 15.044 21.579 15.106 21.573 C 15.149 21.569 15.182 21.554 15.18 21.541 C 15.177 21.527 15.192 21.507 15.211 21.495 C 15.231 21.484 15.241 21.465 15.233 21.452 C 15.225 21.439 15.268 21.429 15.332 21.429 C 15.437 21.429 15.446 21.424 15.446 21.366 L 15.446 21.304 L 15.714 21.301 C 15.861 21.3 16 21.3 16.023 21.302 C 16.092 21.309 16.243 21.234 16.243 21.193 C 16.243 21.161 16.28 21.154 16.449 21.153 C 16.687 21.15 16.768 21.139 16.803 21.101 C 16.821 21.082 16.812 21.079 16.773 21.091 C 16.742 21.1 16.717 21.097 16.717 21.084 C 16.717 21.056 16.837 21.03 16.968 21.03 C 17.086 21.03 17.185 20.987 17.204 20.926 C 17.214 20.893 17.244 20.88 17.31 20.878 C 17.491 20.872 17.501 20.869 17.51 20.812 C 17.516 20.769 17.534 20.756 17.589 20.756 C 17.628 20.756 17.667 20.745 17.675 20.732 C 17.683 20.719 17.706 20.714 17.726 20.722 C 17.775 20.741 17.806 20.658 17.761 20.629 C 17.737 20.614 17.762 20.607 17.834 20.607 C 17.922 20.606 17.956 20.592 18.012 20.532 C 18.055 20.486 18.107 20.457 18.147 20.457 C 18.199 20.457 18.212 20.445 18.212 20.394 C 18.212 20.344 18.224 20.332 18.278 20.332 C 18.32 20.332 18.368 20.305 18.409 20.26 C 18.444 20.221 18.495 20.184 18.523 20.179 C 18.55 20.174 18.586 20.142 18.603 20.108 C 18.62 20.074 18.659 20.04 18.69 20.032 C 18.726 20.024 18.747 20 18.747 19.97 C 18.747 19.938 18.769 19.917 18.808 19.909 C 18.846 19.901 18.877 19.869 18.895 19.821 C 18.913 19.771 18.939 19.746 18.972 19.746 C 19.007 19.746 19.023 19.728 19.028 19.684 C 19.032 19.65 19.037 19.609 19.039 19.592 C 19.041 19.575 19.052 19.568 19.063 19.575 C 19.075 19.582 19.077 19.601 19.068 19.618 C 19.059 19.634 19.074 19.625 19.101 19.597 C 19.13 19.568 19.141 19.541 19.127 19.531 C 19.113 19.522 19.137 19.508 19.18 19.498 C 19.272 19.478 19.308 19.422 19.308 19.3 C 19.308 19.218 19.314 19.211 19.383 19.211 C 19.446 19.211 19.458 19.201 19.458 19.149 C 19.458 19.105 19.474 19.083 19.518 19.072 C 19.568 19.06 19.581 19.037 19.595 18.937 C 19.608 18.837 19.621 18.814 19.671 18.802 C 19.725 18.788 19.732 18.773 19.732 18.662 C 19.732 18.559 19.739 18.538 19.776 18.538 C 19.85 18.538 19.881 18.485 19.881 18.361 C 19.881 18.257 19.888 18.243 19.944 18.229 C 19.99 18.217 20.006 18.198 20.003 18.157 C 19.985 17.953 20.006 17.846 20.065 17.831 C 20.14 17.812 20.154 17.757 20.155 17.491 C 20.155 17.295 20.16 17.277 20.211 17.255 L 20.267 17.23 L 20.273 16.464 C 20.278 15.725 20.276 15.698 20.231 15.698 C 20.163 15.698 20.158 15.683 20.153 15.422 C 20.15 15.293 20.141 15.176 20.133 15.162 C 20.125 15.148 20.118 15.126 20.118 15.112 C 20.118 15.098 20.093 15.084 20.062 15.079 C 20.011 15.072 20.005 15.057 20.003 14.93 C 19.999 14.699 19.996 14.688 19.95 14.692 C 19.926 14.694 19.912 14.686 19.919 14.675 C 19.926 14.664 19.921 14.652 19.908 14.647 C 19.896 14.642 19.88 14.602 19.873 14.556 C 19.866 14.511 19.845 14.456 19.827 14.433 C 19.799 14.399 19.799 14.396 19.829 14.413 C 19.853 14.428 19.858 14.425 19.846 14.406 C 19.836 14.39 19.807 14.377 19.78 14.377 C 19.733 14.377 19.732 14.352 19.732 13.516 L 19.732 12.656 L 19.791 12.591 C 19.86 12.518 19.864 12.452 19.867 11.503 L 19.869 10.959 L 19.802 10.901 C 19.739 10.848 19.734 10.828 19.727 10.611 C 19.72 10.391 19.716 10.377 19.663 10.37 C 19.614 10.363 19.607 10.347 19.607 10.242 C 19.607 10.061 19.582 9.962 19.54 9.977 C 19.521 9.985 19.512 9.98 19.52 9.966 C 19.528 9.953 19.518 9.942 19.498 9.942 C 19.471 9.942 19.458 9.909 19.453 9.823 C 19.448 9.745 19.435 9.707 19.414 9.711 C 19.397 9.715 19.383 9.706 19.383 9.693 C 19.383 9.679 19.366 9.668 19.345 9.668 C 19.32 9.668 19.308 9.643 19.308 9.592 C 19.308 9.545 19.285 9.493 19.249 9.457 C 19.191 9.398 19.147 9.322 19.154 9.289 C 19.156 9.279 19.144 9.276 19.127 9.282 C 19.077 9.3 19.035 9.259 19.029 9.187 C 19.024 9.135 19.01 9.12 18.966 9.12 C 18.913 9.12 18.899 9.097 18.907 9.028 C 18.911 8.994 18.821 8.96 18.785 8.982 C 18.77 8.992 18.76 8.967 18.76 8.922 C 18.76 8.857 18.75 8.845 18.698 8.845 C 18.653 8.845 18.632 8.829 18.621 8.783 C 18.611 8.745 18.581 8.715 18.545 8.705 C 18.513 8.697 18.486 8.681 18.486 8.67 C 18.486 8.621 18.4 8.571 18.316 8.571 C 18.243 8.571 18.218 8.559 18.195 8.509 C 18.177 8.468 18.176 8.452 18.193 8.463 C 18.209 8.473 18.212 8.468 18.202 8.451 C 18.192 8.435 18.154 8.422 18.117 8.421 C 18.078 8.421 18.025 8.395 17.991 8.359 C 17.943 8.309 17.908 8.297 17.803 8.297 C 17.684 8.297 17.672 8.292 17.647 8.225 C 17.621 8.155 17.615 8.153 17.436 8.151 C 17.335 8.149 17.249 8.138 17.245 8.126 C 17.207 8.013 17.205 8.012 16.501 8.003 C 16.133 7.997 15.825 8 15.817 8.009 Z  M 16.816 9.726 C 16.947 9.758 17.098 9.809 17.152 9.838 C 17.207 9.868 17.262 9.892 17.274 9.892 C 17.286 9.892 17.336 9.925 17.386 9.966 C 17.436 10.007 17.529 10.083 17.592 10.134 C 17.656 10.186 17.745 10.288 17.791 10.36 C 17.838 10.433 17.899 10.522 17.928 10.559 C 17.957 10.597 17.995 10.672 18.012 10.727 C 18.03 10.782 18.068 10.871 18.097 10.926 C 18.206 11.133 18.12 13.858 17.985 14.455 C 17.957 14.578 17.993 14.71 18.081 14.808 C 18.165 14.901 18.436 15.409 18.436 15.474 C 18.436 15.492 18.463 15.575 18.497 15.658 C 18.61 15.942 18.625 16.944 18.521 17.225 C 18.499 17.282 18.461 17.397 18.435 17.479 C 18.41 17.561 18.35 17.702 18.301 17.791 C 18.253 17.88 18.195 17.992 18.172 18.04 C 18.15 18.088 18.099 18.166 18.06 18.214 C 18.021 18.262 17.967 18.329 17.94 18.364 C 17.809 18.534 17.655 18.688 17.452 18.853 C 17.328 18.953 17.208 19.052 17.185 19.073 C 17.106 19.14 16.546 19.431 16.489 19.434 C 16.467 19.434 16.388 19.462 16.315 19.496 C 16.241 19.529 16.114 19.564 16.031 19.573 C 15.949 19.582 15.803 19.606 15.708 19.626 C 15.601 19.648 15.406 19.66 15.205 19.658 C 14.874 19.654 14.738 19.694 14.694 19.807 C 14.637 19.952 14.155 20.218 13.794 20.305 C 12.965 20.503 11.962 19.95 11.765 19.187 C 11.745 19.111 11.711 19.021 11.689 18.987 C 11.588 18.834 11.632 16.064 11.742 15.598 C 11.802 15.343 11.922 15.061 12.012 14.964 C 12.037 14.938 12.057 14.905 12.057 14.891 C 12.057 14.878 12.074 14.848 12.096 14.824 C 12.13 14.786 12.13 14.764 12.089 14.598 C 12.026 14.339 12.028 12.994 12.091 12.708 C 12.114 12.605 12.154 12.409 12.18 12.272 C 12.207 12.134 12.251 11.972 12.279 11.91 C 12.307 11.849 12.33 11.783 12.331 11.764 C 12.331 11.725 12.504 11.371 12.588 11.237 C 12.79 10.913 13.133 10.574 13.404 10.428 C 13.727 10.255 13.884 10.194 14.12 10.154 C 14.239 10.133 14.388 10.106 14.449 10.092 C 14.6 10.06 14.892 10.06 15.042 10.093 C 15.167 10.119 15.265 10.087 15.398 9.975 C 15.699 9.721 16.339 9.609 16.816 9.726 Z  M 16.207 11.074 C 16.054 11.17 16.013 11.276 16 11.611 C 15.985 12.006 15.944 12.042 15.731 11.846 C 15.622 11.745 15.558 11.703 15.321 11.575 C 14.859 11.325 14.253 11.396 13.907 11.742 C 13.782 11.867 13.577 12.218 13.577 12.307 C 13.577 12.325 13.55 12.43 13.516 12.542 C 13.471 12.694 13.446 12.867 13.419 13.231 C 13.358 14.064 13.426 14.477 13.689 14.865 C 13.789 15.012 14.112 15.272 14.195 15.274 C 14.213 15.274 14.286 15.302 14.358 15.335 C 14.441 15.375 14.57 15.406 14.715 15.423 C 14.84 15.437 15.013 15.47 15.1 15.496 C 15.188 15.522 15.309 15.552 15.371 15.561 C 15.433 15.57 15.53 15.598 15.587 15.623 C 15.643 15.647 15.727 15.676 15.773 15.685 C 15.819 15.695 15.893 15.73 15.936 15.763 C 15.98 15.795 16.028 15.822 16.043 15.822 C 16.157 15.822 16.413 16.199 16.456 16.431 C 16.51 16.715 16.187 17.178 15.795 17.382 L 15.608 17.479 L 15.259 17.479 C 14.825 17.479 14.635 17.397 14.213 17.025 C 14.008 16.844 13.881 16.516 13.855 16.101 L 13.835 15.79 L 13.72 15.682 C 13.521 15.494 13.259 15.538 13.115 15.784 L 13.048 15.899 L 13.035 17.287 C 13.02 18.862 13.01 18.779 13.222 18.913 C 13.424 19.041 13.601 18.993 13.756 18.769 L 13.834 18.656 L 13.819 18.314 C 13.809 18.074 13.813 17.964 13.833 17.944 C 13.876 17.901 13.987 17.91 14.053 17.962 C 14.135 18.026 14.408 18.138 14.574 18.176 C 14.649 18.194 14.778 18.229 14.86 18.254 C 15.076 18.32 15.504 18.314 15.705 18.242 C 15.786 18.213 15.869 18.189 15.89 18.189 C 15.923 18.189 16.207 18.066 16.283 18.019 C 17.048 17.545 17.334 16.904 17.174 16.022 C 17.132 15.789 16.819 15.372 16.567 15.212 C 16.505 15.173 16.415 15.115 16.366 15.083 C 16.318 15.051 16.268 15.025 16.256 15.025 C 16.244 15.025 16.161 14.992 16.071 14.952 C 15.848 14.854 15.508 14.754 15.303 14.728 C 15.21 14.716 15.045 14.683 14.935 14.656 C 14.825 14.628 14.695 14.598 14.645 14.59 C 14.297 14.532 14.081 13.987 14.186 13.43 C 14.208 13.314 14.242 13.082 14.262 12.915 C 14.352 12.136 14.765 12.005 15.327 12.576 C 15.569 12.821 15.795 13.175 15.795 13.308 C 15.795 13.331 15.812 13.398 15.833 13.458 C 15.855 13.518 15.888 13.685 15.908 13.829 C 15.977 14.329 16.443 14.472 16.65 14.058 C 16.727 13.904 16.827 11.503 16.766 11.286 C 16.7 11.054 16.413 10.944 16.207 11.074 Z  M 9.957 18.519 C 9.951 18.55 9.946 18.525 9.946 18.463 C 9.946 18.402 9.951 18.377 9.957 18.407 C 9.963 18.438 9.963 18.489 9.957 18.519 Z " fill-rule="evenodd" fill="rgb(255,255,255)"/></g></g></g></svg>