<?xml version="1.0" encoding="UTF-8" standalone="no"?><!-- Generator: Gravit.io --><svg xmlns="http://www.w3.org/2000/svg" xmlns:xlink="http://www.w3.org/1999/xlink" style="isolation:isolate" viewBox="0 0 96 96" width="96pt" height="96pt"><defs><clipPath id="_clipPath_wb77P1wTcEIsQxi5ahAgYD1vSmdPKXsH"><rect width="96" height="96"/></clipPath></defs><g clip-path="url(#_clipPath_wb77P1wTcEIsQxi5ahAgYD1vSmdPKXsH)"><g><path d=" M 70 60.537 L 66.384 58.868 L 62.767 60.537 L 62.767 51.078 C 62.767 50.466 63.268 49.966 63.88 49.966 L 68.887 49.966 C 69.499 49.966 70 50.466 70 51.078 L 70 60.537 Z " fill="rgb(244,67,54)"/><g><path d=" M 46.063 43.552 C 45.992 43.574 45.631 43.62 45.261 43.655 C 44.164 43.758 43.447 44.146 43.282 44.724 C 43.189 45.049 43.033 45.087 42.601 44.891 C 42.209 44.714 41.962 44.691 40.494 44.694 C 38.476 44.699 37.859 44.874 37.46 45.554 C 37.384 45.684 37.31 45.748 37.193 45.786 C 37.104 45.816 36.964 45.885 36.882 45.941 C 36.799 45.996 36.71 46.042 36.684 46.042 C 36.657 46.042 36.565 46.107 36.48 46.187 L 36.326 46.333 L 35.797 46.332 C 35.416 46.332 35.224 46.35 35.111 46.398 C 34.862 46.502 34.774 46.38 34.774 45.934 C 34.774 45.52 34.596 44.904 34.442 44.78 C 34.388 44.737 34.344 44.675 34.344 44.641 C 34.344 44.608 34.266 44.529 34.171 44.467 C 34.077 44.404 33.999 44.338 33.999 44.319 C 33.999 44.301 33.898 44.254 33.774 44.215 C 33.649 44.176 33.514 44.126 33.472 44.103 C 33.186 43.947 32.451 44.07 32.021 44.346 C 31.89 44.43 31.799 44.444 31.305 44.461 C 30.715 44.48 30.661 44.495 30.11 44.785 C 29.846 44.924 29.43 45.336 29.318 45.569 C 29.278 45.651 29.209 45.773 29.165 45.84 C 29.094 45.945 29.012 46.204 28.833 46.88 C 28.786 47.06 28.761 48.284 28.793 48.837 C 28.811 49.15 28.807 49.167 28.659 49.381 C 28.477 49.646 28.467 49.733 28.424 51.464 C 28.376 53.396 28.541 53.915 29.324 54.302 C 29.423 54.351 29.558 54.42 29.623 54.455 C 30.07 54.696 31.128 54.371 31.548 53.865 C 31.56 53.85 31.792 53.828 32.064 53.814 C 32.651 53.784 32.97 53.721 33.204 53.589 C 33.544 53.397 33.652 53.408 33.923 53.664 C 34.246 53.971 34.626 54.228 34.856 54.295 C 34.961 54.325 35.087 54.376 35.136 54.408 C 35.468 54.623 37.171 54.614 37.611 54.395 C 37.765 54.319 37.91 54.256 37.934 54.256 C 37.958 54.256 38.073 54.188 38.19 54.106 C 38.306 54.023 38.424 53.955 38.452 53.955 C 38.479 53.955 38.535 53.918 38.576 53.873 C 38.64 53.803 38.695 53.794 38.98 53.811 C 39.371 53.834 40.489 53.706 41.143 53.564 L 41.598 53.464 L 41.809 53.613 C 42.273 53.939 42.344 53.969 42.935 54.088 L 43.419 54.185 L 43.847 54.093 C 44.707 53.907 45.54 53.242 45.674 52.633 C 45.728 52.385 46.547 52.087 46.692 52.263 C 46.725 52.302 46.8 52.355 46.859 52.381 C 46.918 52.407 47.057 52.483 47.168 52.549 C 47.524 52.762 48.237 52.75 48.542 52.525 C 48.727 52.388 48.988 52.589 49.075 52.934 C 49.089 52.992 49.168 53.101 49.249 53.178 C 49.33 53.254 49.396 53.332 49.396 53.349 C 49.396 53.367 49.449 53.408 49.515 53.44 C 49.58 53.473 49.691 53.541 49.762 53.592 C 50.105 53.839 53.191 53.87 53.556 53.63 C 53.967 53.36 54.215 53.269 54.313 53.354 C 54.496 53.511 54.71 53.654 54.858 53.718 C 54.941 53.754 55.08 53.821 55.166 53.868 C 55.418 54.004 55.875 54.051 56.769 54.034 L 57.589 54.018 L 57.872 53.879 C 58.177 53.729 58.268 53.717 58.587 53.782 C 58.701 53.806 59.133 53.842 59.548 53.863 C 60.352 53.903 60.492 53.939 60.655 54.147 C 60.826 54.364 61.087 54.545 61.272 54.575 C 61.373 54.591 61.48 54.624 61.51 54.649 C 61.58 54.707 62.127 54.711 62.237 54.655 C 62.39 54.574 63.604 54.347 64.115 54.303 C 64.418 54.277 64.666 54.233 64.738 54.192 C 65.164 53.952 65.361 53.786 65.481 53.567 C 65.517 53.503 65.58 53.402 65.622 53.344 C 65.743 53.173 65.808 52.603 65.749 52.223 C 65.69 51.845 65.534 51.585 65.131 51.197 L 64.869 50.944 L 64.846 49.078 L 64.823 47.211 L 65.142 46.892 C 65.555 46.478 65.681 46.265 65.741 45.873 C 65.799 45.506 65.73 44.876 65.624 44.788 C 65.589 44.759 65.524 44.663 65.478 44.573 C 65.433 44.484 65.327 44.357 65.242 44.291 C 65.158 44.225 65.029 44.118 64.955 44.053 C 64.881 43.987 64.783 43.934 64.738 43.934 C 64.693 43.934 64.546 43.902 64.413 43.863 C 63.9 43.714 61.473 43.846 61.212 44.038 C 61.159 44.077 61.053 44.149 60.976 44.198 C 60.899 44.247 60.836 44.302 60.836 44.32 C 60.836 44.41 60.519 44.446 59.611 44.461 L 58.621 44.478 L 58.32 44.64 C 58.155 44.729 57.931 44.892 57.824 45.003 C 57.656 45.175 56.98 45.569 56.853 45.569 C 56.834 45.569 56.779 45.618 56.73 45.679 C 56.489 45.982 55.853 45.843 55.743 45.464 C 55.554 44.814 54.644 44.247 54.004 44.38 C 53.942 44.393 52.778 44.425 51.418 44.453 L 48.946 44.502 L 48.699 44.62 C 48.364 44.779 48.149 44.752 48.081 44.543 C 47.985 44.247 47.504 43.758 47.229 43.677 C 47.132 43.648 46.989 43.598 46.911 43.565 C 46.753 43.497 46.262 43.49 46.063 43.552 Z  M 46.736 44.979 C 46.835 45.067 46.913 45.189 46.949 45.311 C 46.981 45.417 47.051 45.57 47.105 45.65 C 47.159 45.73 47.203 45.833 47.203 45.879 C 47.203 45.925 47.271 46.103 47.353 46.275 C 47.436 46.447 47.504 46.61 47.504 46.636 C 47.504 46.663 47.562 46.798 47.633 46.938 C 47.704 47.078 47.762 47.227 47.762 47.269 C 47.762 47.311 47.808 47.425 47.865 47.522 C 47.922 47.618 47.991 47.784 48.019 47.891 C 48.047 47.997 48.114 48.152 48.169 48.235 C 48.224 48.318 48.281 48.459 48.297 48.548 C 48.313 48.638 48.373 48.781 48.431 48.866 C 48.489 48.951 48.537 49.062 48.537 49.112 C 48.538 49.24 48.674 49.522 48.814 49.688 C 48.947 49.846 48.981 49.845 49.32 49.672 C 49.753 49.452 50.211 49.794 49.967 50.154 C 49.908 50.24 49.446 50.514 49.36 50.514 C 49.314 50.514 49.165 50.573 49.031 50.644 C 48.896 50.714 48.763 50.773 48.736 50.773 C 48.709 50.773 48.532 50.893 48.343 51.039 C 47.835 51.431 47.558 51.402 47.514 50.951 C 47.492 50.717 47.478 50.738 47.882 50.373 C 48.096 50.18 48.106 50.093 47.952 49.8 C 47.773 49.462 47.634 49.299 47.571 49.351 C 47.541 49.376 47.432 49.406 47.328 49.417 C 46.238 49.54 46.095 49.576 45.974 49.76 C 45.877 49.909 45.93 50.118 46.11 50.286 C 46.305 50.469 46.309 50.653 46.124 50.855 L 45.992 51.001 L 45.382 50.971 C 44.584 50.932 43.902 50.848 43.741 50.77 C 43.532 50.668 43.533 50.401 43.744 50.217 L 43.902 50.078 L 44.48 50.09 C 45.147 50.103 45.111 50.124 45.181 49.677 C 45.207 49.511 45.247 49.341 45.27 49.299 C 45.324 49.202 45.44 48.601 45.44 48.42 C 45.44 48.344 45.486 48.132 45.543 47.947 C 45.599 47.762 45.67 47.418 45.698 47.181 C 45.727 46.945 45.777 46.693 45.809 46.622 C 45.901 46.416 45.96 45.958 45.907 45.86 C 45.865 45.78 45.832 45.777 45.286 45.806 L 44.709 45.837 L 44.58 45.698 C 44.266 45.362 44.538 45.078 45.216 45.035 C 45.475 45.019 45.811 44.97 45.961 44.926 C 46.385 44.804 46.55 44.815 46.736 44.979 Z  M 64.163 45.203 C 64.619 45.394 64.405 45.956 63.876 45.956 C 63.792 45.956 63.68 45.994 63.614 46.046 L 63.499 46.137 L 63.505 49.074 C 63.511 52.398 63.49 52.207 63.841 52.191 C 64.232 52.173 64.263 52.182 64.344 52.353 C 64.531 52.742 64.408 52.896 63.86 52.963 C 63.628 52.991 63.322 53.041 63.18 53.074 C 63.038 53.106 62.777 53.146 62.6 53.162 C 62.39 53.181 62.211 53.226 62.087 53.292 C 61.886 53.399 61.881 53.398 61.664 53.227 C 61.513 53.108 61.475 52.913 61.578 52.789 C 61.743 52.591 62.114 52.407 62.346 52.407 C 62.732 52.407 62.743 52.356 62.716 50.769 L 62.696 49.59 L 62.594 49.534 C 62.47 49.466 61.933 49.497 61.675 49.587 C 61.58 49.62 61.338 49.669 61.137 49.697 C 60.368 49.802 60.459 49.668 60.445 50.713 C 60.431 51.711 60.434 51.719 60.797 51.719 C 61.459 51.719 61.731 52.199 61.235 52.494 C 60.986 52.642 59.235 52.597 58.875 52.432 C 58.382 52.206 58.679 51.633 59.255 51.699 C 59.684 51.748 59.652 51.948 59.665 49.147 C 59.679 46.386 59.711 46.601 59.285 46.601 C 58.698 46.601 58.461 46.279 58.798 45.941 L 58.913 45.827 L 60.037 45.827 C 61.266 45.827 61.285 45.83 61.416 46.083 C 61.572 46.384 61.322 46.601 60.822 46.601 C 60.653 46.601 60.529 46.622 60.501 46.655 C 60.449 46.718 60.414 48.831 60.464 48.912 C 60.514 48.993 60.834 48.977 61.116 48.88 C 61.254 48.833 61.59 48.774 61.865 48.75 C 62.731 48.672 62.686 48.753 62.686 47.289 L 62.686 46.177 L 62.572 46.088 C 62.488 46.021 62.397 45.999 62.215 45.999 C 61.89 45.999 61.697 45.829 61.697 45.545 C 61.697 45.291 61.84 45.216 62.394 45.182 C 63.313 45.125 63.996 45.133 64.163 45.203 Z  M 33.298 45.546 L 33.452 45.696 L 33.429 46.224 C 33.343 48.168 33.304 48.422 33.076 48.517 C 32.743 48.656 32.587 48.504 32.507 47.962 C 32.466 47.687 32.416 47.52 32.342 47.408 C 32.284 47.32 32.236 47.233 32.236 47.215 C 32.235 47.196 32.147 47.094 32.04 46.988 C 31.932 46.881 31.803 46.751 31.753 46.697 C 31.648 46.587 31.237 46.556 31.175 46.655 C 30.872 47.13 30.779 48.375 31.026 48.638 C 31.22 48.844 31.508 48.961 31.895 48.991 C 32.117 49.008 32.31 49.049 32.392 49.095 C 32.466 49.138 32.635 49.204 32.768 49.242 C 32.901 49.281 33.01 49.328 33.01 49.346 C 33.01 49.365 33.087 49.424 33.181 49.476 C 34.333 50.124 33.835 52.124 32.451 52.408 C 31.911 52.519 31.141 52.439 30.919 52.248 C 30.692 52.053 30.56 52.173 30.559 52.579 C 30.558 52.886 30.344 53.223 30.188 53.164 C 30.152 53.149 30.079 53.138 30.026 53.138 C 29.749 53.138 29.693 52.617 29.788 50.924 C 29.839 50.013 29.871 49.89 30.073 49.823 C 30.366 49.727 30.602 49.999 30.602 50.433 C 30.602 50.869 30.769 51.147 31.238 51.493 C 31.586 51.751 32.29 51.723 32.639 51.438 C 33.486 50.749 32.963 49.896 31.598 49.741 C 31.008 49.674 30.489 49.375 30.346 49.02 C 30.316 48.943 30.274 48.88 30.254 48.88 C 30.07 48.88 30.084 47.055 30.271 46.709 C 30.335 46.591 30.387 46.465 30.387 46.429 C 30.387 46.35 30.517 46.2 30.771 45.987 L 30.961 45.827 L 31.412 45.827 C 31.824 45.827 31.874 45.836 32.001 45.932 C 32.12 46.023 32.613 46.268 32.629 46.244 C 32.631 46.239 32.639 46.103 32.646 45.941 C 32.667 45.425 32.979 45.236 33.298 45.546 Z  M 54.369 45.83 C 54.561 45.948 54.573 46.016 54.547 46.831 C 54.519 47.741 54.464 47.879 54.106 47.946 C 53.824 47.999 53.697 47.742 53.697 47.119 C 53.697 46.544 53.695 46.543 52.913 46.565 C 52.505 46.576 52.315 46.599 52.246 46.644 L 52.149 46.707 L 52.149 49.103 L 52.149 51.499 L 52.244 51.566 C 52.311 51.612 52.441 51.633 52.672 51.633 C 53.169 51.633 53.265 51.7 53.266 52.05 C 53.268 52.387 53.12 52.417 51.542 52.399 C 50.255 52.384 50.243 52.382 50.191 52.143 C 50.12 51.819 50.348 51.633 50.816 51.633 C 51.255 51.633 51.375 51.557 51.351 51.292 C 51.342 51.184 51.324 50.108 51.312 48.902 C 51.286 46.314 51.379 46.6 50.56 46.602 C 49.755 46.604 49.753 46.607 49.877 47.568 C 49.965 48.251 49.928 48.418 49.671 48.489 C 49.303 48.59 49.163 48.384 49.098 47.647 C 49.076 47.388 49.017 47.032 48.969 46.857 C 48.831 46.36 48.846 46.165 49.037 45.979 L 49.194 45.827 L 50.79 45.821 C 51.667 45.818 52.695 45.802 53.074 45.785 C 54.264 45.735 54.212 45.733 54.369 45.83 Z  M 41.827 46.089 C 42.622 46.2 43.313 46.81 43.23 47.328 C 43.198 47.531 42.937 48.109 42.843 48.187 C 42.805 48.219 42.773 48.267 42.773 48.294 C 42.774 48.321 42.715 48.391 42.643 48.45 C 42.451 48.608 42.426 48.829 42.576 49.054 C 42.731 49.288 42.988 50.922 42.988 51.671 C 42.988 52.072 43.688 52.016 43.801 51.607 C 43.848 51.436 43.96 51.289 44.043 51.289 C 44.072 51.289 44.12 51.259 44.15 51.223 C 44.199 51.164 44.215 51.166 44.296 51.239 C 44.345 51.284 44.429 51.343 44.483 51.371 C 44.708 51.487 44.521 52.153 44.173 52.473 C 44.012 52.622 43.561 52.837 43.41 52.837 C 43.284 52.837 42.601 52.583 42.601 52.536 C 42.601 52.52 42.531 52.417 42.446 52.308 C 42.253 52.06 42.105 51.277 42.021 50.063 C 41.966 49.265 41.787 49.094 41.1 49.181 C 40.328 49.279 40.366 49.217 40.366 50.385 C 40.366 51.326 40.396 51.495 40.561 51.469 C 41.03 51.396 41.047 51.399 41.204 51.56 C 41.611 51.979 41.209 52.281 40.128 52.367 C 39.844 52.389 39.518 52.427 39.403 52.451 C 39.158 52.501 38.881 52.444 38.823 52.33 C 38.655 52.002 38.808 51.748 39.225 51.663 C 39.617 51.583 39.59 51.663 39.59 50.562 C 39.59 49.48 39.591 49.481 39.311 49.421 C 38.966 49.348 38.945 48.671 39.287 48.664 C 39.527 48.659 39.59 48.446 39.59 47.635 C 39.59 46.829 39.593 46.834 39.192 46.872 C 38.846 46.904 38.608 46.838 38.574 46.699 C 38.533 46.537 38.59 46.285 38.686 46.207 C 38.905 46.028 40.858 45.954 41.827 46.089 Z  M 58.123 46.824 L 58.256 47.005 L 58.256 47.808 C 58.256 48.762 58.246 48.822 58.055 48.983 C 57.859 49.149 57.658 49.098 57.44 48.828 C 57.019 48.306 56.517 48.009 56.046 48.002 C 55.766 47.998 55.493 48.282 55.412 48.662 C 55.338 49.008 55.335 51.13 55.408 51.337 C 55.573 51.802 56.343 52.061 57.061 51.895 C 57.436 51.807 57.737 51.303 57.768 50.708 C 57.779 50.495 57.808 50.269 57.832 50.207 C 57.906 50.015 58.224 49.981 58.415 50.145 L 58.535 50.249 L 58.535 50.809 C 58.535 51.321 58.527 51.379 58.438 51.499 C 58.385 51.57 58.342 51.65 58.342 51.676 C 58.342 51.753 58.221 51.964 58.106 52.088 C 58.046 52.152 57.998 52.217 57.998 52.233 C 57.998 52.305 57.439 52.618 57.232 52.66 C 56.684 52.775 55.643 52.682 55.447 52.502 C 55.395 52.455 55.309 52.404 55.256 52.387 C 55.203 52.371 55.159 52.34 55.159 52.318 C 55.159 52.296 55.101 52.227 55.03 52.163 C 54.959 52.1 54.901 52.025 54.901 51.997 C 54.901 51.969 54.855 51.896 54.799 51.836 C 54.451 51.46 54.449 48.694 54.797 48.068 C 54.854 47.965 54.901 47.858 54.902 47.832 C 54.902 47.772 55.237 47.418 55.292 47.418 C 55.315 47.418 55.412 47.366 55.509 47.302 C 55.746 47.145 56.269 47.137 56.601 47.286 C 56.836 47.391 57.3 47.546 57.385 47.546 C 57.422 47.547 57.439 47.466 57.439 47.287 C 57.439 46.679 57.825 46.418 58.123 46.824 Z  M 40.43 46.83 C 40.374 46.915 40.364 47.058 40.374 47.655 C 40.388 48.514 40.396 48.529 40.761 48.369 C 40.886 48.314 41.075 48.252 41.182 48.232 C 41.452 48.18 41.698 48.098 41.698 48.061 C 41.698 48.043 41.743 48.018 41.798 48.004 C 41.95 47.966 42.192 47.716 42.318 47.468 L 42.43 47.246 L 42.334 47.1 C 42.17 46.85 42.029 46.815 40.958 46.753 C 40.506 46.728 40.496 46.729 40.43 46.83 Z  M 46.542 46.988 C 46.494 47.13 46.429 47.517 46.429 47.66 C 46.429 47.744 46.369 48.044 46.296 48.327 C 46.114 49.037 46.118 49.041 46.88 48.843 C 47.35 48.721 47.39 48.667 47.278 48.312 C 47.23 48.163 47.167 48.013 47.137 47.977 C 47.107 47.941 47.053 47.812 47.017 47.69 C 46.945 47.445 46.885 47.32 46.789 47.21 C 46.754 47.171 46.689 47.09 46.645 47.031 C 46.582 46.947 46.559 46.937 46.542 46.988 Z  M 37.926 47.242 C 37.962 47.278 37.982 47.604 37.991 48.342 L 38.005 49.391 L 37.895 49.462 C 37.65 49.623 37.442 49.558 37.166 49.235 C 36.931 48.961 36.595 48.665 36.516 48.665 C 36.484 48.665 36.362 48.617 36.244 48.558 C 35.839 48.354 35.441 48.479 35.349 48.837 C 35.334 48.896 35.28 49.032 35.23 49.138 C 35.062 49.495 35.078 51.848 35.248 51.848 C 35.266 51.848 35.301 51.904 35.325 51.974 C 35.349 52.043 35.424 52.133 35.491 52.175 C 35.557 52.216 35.637 52.281 35.668 52.318 C 35.728 52.391 36.645 52.443 36.872 52.386 C 37.262 52.288 37.525 51.782 37.526 51.131 L 37.526 50.694 L 37.694 50.561 C 38.505 49.919 38.567 51.897 37.762 52.737 C 37.664 52.839 37.558 52.923 37.527 52.923 C 37.495 52.923 37.4 52.976 37.315 53.041 L 37.161 53.159 L 36.343 53.159 L 35.526 53.158 L 35.225 52.97 C 35.06 52.866 34.917 52.763 34.908 52.74 C 34.899 52.717 34.848 52.659 34.793 52.612 C 34.738 52.565 34.652 52.436 34.601 52.327 C 34.549 52.217 34.471 52.06 34.426 51.977 C 34.255 51.663 34.321 49.02 34.506 48.781 C 34.527 48.753 34.57 48.639 34.6 48.528 C 34.632 48.409 34.705 48.282 34.778 48.216 C 34.847 48.155 34.903 48.089 34.903 48.069 C 34.903 48.049 35.014 47.957 35.15 47.865 L 35.397 47.697 L 35.849 47.699 C 36.267 47.7 36.322 47.71 36.592 47.838 C 36.752 47.915 36.9 47.977 36.92 47.977 C 36.94 47.977 36.98 48.006 37.01 48.042 C 37.126 48.181 37.23 48.022 37.249 47.676 C 37.255 47.569 37.262 47.448 37.264 47.407 C 37.276 47.187 37.752 47.068 37.926 47.242 Z " fill-rule="evenodd" fill="rgb(252,185,30)"/><path d=" M 45.611 40.977 C 45.611 41.003 45.599 41.012 45.584 40.997 C 45.569 40.982 45.519 41.017 45.474 41.076 C 45.39 41.182 45.39 41.182 44.585 41.182 C 43.752 41.182 43.676 41.197 43.676 41.362 C 43.676 41.426 43.64 41.44 43.467 41.44 C 43.135 41.44 42.986 41.484 42.935 41.596 C 42.902 41.667 42.852 41.698 42.772 41.698 C 42.676 41.698 42.65 41.721 42.629 41.827 C 42.606 41.94 42.585 41.956 42.454 41.956 C 42.215 41.956 42.085 42.024 42.085 42.148 C 42.085 42.257 42.085 42.257 41.676 42.257 C 41.351 42.257 41.268 42.245 41.268 42.195 C 41.268 42.036 41.148 41.999 40.628 41.999 C 40.108 41.999 40.02 42.025 40.02 42.18 C 40.02 42.252 39.952 42.257 38.956 42.258 C 37.774 42.258 37.708 42.266 37.672 42.413 C 37.648 42.507 37.625 42.515 37.371 42.515 L 37.096 42.515 L 37.096 42.644 C 37.096 42.773 37.096 42.773 36.841 42.773 C 36.593 42.773 36.586 42.776 36.558 42.902 C 36.518 43.085 36.292 43.094 36.271 42.913 C 36.26 42.821 36.232 42.791 36.142 42.781 C 36.052 42.771 36.023 42.742 36.013 42.652 C 36.002 42.563 35.973 42.534 35.884 42.523 C 35.802 42.514 35.757 42.474 35.725 42.384 C 35.684 42.266 35.666 42.257 35.464 42.257 C 35.252 42.257 35.247 42.254 35.247 42.131 C 35.247 42.013 35.161 41.939 35.047 41.959 C 34.835 41.997 34.693 41.95 34.68 41.838 L 34.666 41.719 L 34.268 41.707 C 33.913 41.696 33.87 41.686 33.87 41.614 C 33.87 41.482 33.646 41.44 32.95 41.44 C 32.206 41.441 32.117 41.456 32.099 41.584 C 32.087 41.669 32.054 41.678 31.699 41.698 C 31.314 41.719 31.311 41.72 31.298 41.838 L 31.284 41.956 L 30.734 41.956 C 29.936 41.956 29.786 41.983 29.733 42.134 C 29.693 42.25 29.677 42.257 29.436 42.257 C 29.183 42.257 29.183 42.257 29.183 42.386 C 29.183 42.494 29.165 42.515 29.078 42.515 C 28.912 42.515 28.746 42.595 28.722 42.685 C 28.707 42.745 28.656 42.772 28.544 42.781 C 28.409 42.793 28.385 42.811 28.373 42.913 C 28.362 43.012 28.339 43.031 28.234 43.031 C 28.122 43.031 28.107 43.046 28.107 43.16 C 28.107 43.275 28.093 43.289 27.978 43.289 C 27.864 43.289 27.849 43.303 27.849 43.418 C 27.849 43.533 27.835 43.547 27.72 43.547 C 27.606 43.547 27.591 43.561 27.591 43.676 C 27.591 43.76 27.569 43.807 27.527 43.811 C 27.491 43.813 27.438 43.818 27.408 43.821 C 27.379 43.824 27.349 43.888 27.341 43.964 C 27.331 44.077 27.308 44.103 27.212 44.114 C 27.104 44.127 27.096 44.142 27.084 44.375 C 27.071 44.617 27.068 44.622 26.944 44.622 C 26.818 44.622 26.817 44.623 26.817 44.88 L 26.817 45.139 L 26.688 45.139 C 26.585 45.139 26.557 45.158 26.551 45.235 C 26.547 45.288 26.539 45.371 26.534 45.418 C 26.529 45.465 26.523 45.664 26.52 45.859 C 26.516 46.203 26.513 46.214 26.413 46.214 C 26.261 46.214 26.258 46.243 26.258 47.588 L 26.258 48.826 L 26.129 48.852 L 26 48.878 L 26.005 51.47 C 26.011 54.26 26.013 54.313 26.161 54.334 C 26.247 54.347 26.258 54.373 26.259 54.571 C 26.259 54.782 26.299 54.913 26.36 54.905 C 26.486 54.888 26.51 54.917 26.538 55.122 C 26.565 55.313 26.585 55.349 26.693 55.389 C 26.789 55.426 26.817 55.463 26.817 55.556 C 26.817 55.66 26.834 55.675 26.946 55.675 C 27.061 55.675 27.075 55.69 27.075 55.803 C 27.075 55.911 27.097 55.937 27.215 55.968 C 27.322 55.996 27.352 56.025 27.342 56.092 C 27.328 56.192 27.427 56.233 27.685 56.234 C 27.826 56.234 27.845 56.248 27.857 56.353 C 27.869 56.451 27.894 56.473 28.011 56.485 C 28.116 56.495 28.15 56.519 28.15 56.582 C 28.15 56.696 28.31 56.751 28.645 56.751 C 28.912 56.751 28.919 56.754 28.932 56.869 L 28.946 56.987 L 30.107 56.987 L 31.268 56.987 L 31.282 56.87 C 31.295 56.755 31.298 56.754 31.669 56.741 C 32.041 56.729 32.043 56.729 32.056 56.611 C 32.068 56.51 32.091 56.492 32.207 56.488 C 32.45 56.481 32.559 56.431 32.555 56.329 C 32.549 56.163 33.113 56.19 33.298 56.364 C 33.389 56.449 33.48 56.492 33.567 56.492 C 33.656 56.492 33.737 56.533 33.821 56.622 C 33.932 56.738 33.971 56.751 34.208 56.751 C 34.458 56.751 34.473 56.756 34.473 56.853 C 34.473 57.009 34.489 57.01 36.324 57.008 C 38.115 57.005 38.171 56.999 38.103 56.821 C 38.08 56.76 38.119 56.751 38.406 56.751 C 38.77 56.751 38.902 56.704 38.902 56.577 C 38.902 56.507 38.932 56.492 39.077 56.492 C 39.173 56.492 39.241 56.476 39.229 56.456 C 39.216 56.435 39.273 56.426 39.356 56.435 C 39.473 56.448 39.53 56.428 39.615 56.343 L 39.723 56.235 L 40.643 56.235 L 41.563 56.235 L 41.577 56.353 L 41.59 56.471 L 42.108 56.483 C 42.578 56.494 42.63 56.503 42.681 56.584 C 42.711 56.633 42.716 56.661 42.69 56.645 C 42.665 56.629 42.644 56.635 42.644 56.657 C 42.644 56.68 42.693 56.711 42.754 56.726 C 42.92 56.768 44.02 56.748 44.02 56.704 C 44.02 56.682 44.035 56.667 44.053 56.67 C 44.148 56.685 44.192 56.656 44.192 56.579 C 44.192 56.499 44.221 56.492 44.547 56.492 C 45.084 56.491 45.225 56.459 45.225 56.338 C 45.225 56.246 45.244 56.238 45.493 56.226 C 45.747 56.214 45.763 56.207 45.775 56.1 C 45.787 56.002 45.813 55.984 45.986 55.96 C 46.211 55.93 46.3 55.872 46.3 55.756 C 46.3 55.695 46.331 55.675 46.429 55.675 C 46.543 55.675 46.558 55.661 46.558 55.546 C 46.558 55.428 46.57 55.417 46.708 55.417 C 46.847 55.417 46.859 55.407 46.859 55.288 L 46.859 55.159 L 47.264 55.159 C 47.621 55.159 47.673 55.169 47.695 55.239 C 47.725 55.331 47.892 55.417 48.044 55.417 C 48.132 55.417 48.149 55.438 48.149 55.546 C 48.149 55.665 48.161 55.675 48.297 55.675 C 48.407 55.675 48.451 55.697 48.472 55.762 C 48.512 55.89 48.717 55.976 48.98 55.976 C 49.205 55.976 49.214 55.981 49.239 56.106 L 49.265 56.235 L 51.887 56.235 C 54.461 56.235 54.509 56.236 54.535 56.32 C 54.586 56.481 54.799 56.497 56.643 56.484 L 58.406 56.471 L 58.42 56.353 C 58.437 56.203 58.562 56.194 58.673 56.335 C 58.733 56.412 58.812 56.442 59.009 56.464 C 59.185 56.484 59.246 56.48 59.202 56.45 C 59.163 56.425 59.158 56.408 59.189 56.407 C 59.217 56.407 59.252 56.426 59.266 56.45 C 59.281 56.473 59.399 56.492 59.527 56.492 C 59.758 56.492 59.761 56.494 59.761 56.622 C 59.761 56.74 59.773 56.751 59.912 56.751 C 60.033 56.751 60.062 56.767 60.062 56.835 C 60.062 56.969 60.198 57.009 60.659 57.009 L 61.089 57.009 L 61.102 57.127 L 61.116 57.245 L 61.868 57.245 C 62.586 57.245 62.621 57.241 62.636 57.159 C 62.66 57.021 62.685 57.014 63.137 57.005 C 63.592 56.997 63.689 56.981 63.651 56.918 C 63.637 56.897 63.647 56.88 63.672 56.88 C 63.697 56.88 63.718 56.851 63.718 56.815 C 63.718 56.76 63.835 56.751 64.511 56.751 C 65.345 56.751 65.498 56.726 65.535 56.584 C 65.554 56.511 65.599 56.495 65.81 56.484 C 66.045 56.472 66.063 56.464 66.075 56.359 C 66.086 56.259 66.113 56.244 66.333 56.209 C 66.54 56.176 66.58 56.155 66.592 56.073 C 66.601 56.006 66.634 55.976 66.701 55.976 C 66.824 55.976 66.9 55.9 66.9 55.777 C 66.9 55.704 66.929 55.678 67.019 55.668 C 67.112 55.657 67.14 55.629 67.151 55.536 C 67.161 55.443 67.187 55.417 67.269 55.417 C 67.326 55.417 67.376 55.398 67.379 55.374 C 67.382 55.351 67.389 55.312 67.395 55.288 C 67.401 55.265 67.408 55.228 67.411 55.207 C 67.414 55.186 67.463 55.157 67.519 55.143 C 67.628 55.115 67.673 55.011 67.674 54.783 C 67.674 54.703 67.698 54.641 67.728 54.638 C 67.758 54.636 67.811 54.631 67.847 54.628 C 67.895 54.623 67.914 54.554 67.924 54.353 C 67.933 54.159 67.953 54.084 67.996 54.084 C 68.182 54.084 68.191 54.018 68.191 52.579 C 68.191 51.158 68.172 50.988 68.02 50.988 C 67.943 50.988 67.933 50.96 67.933 50.748 C 67.933 50.6 67.916 50.519 67.89 50.536 C 67.866 50.551 67.847 50.534 67.847 50.498 C 67.847 50.456 67.816 50.439 67.761 50.45 C 67.688 50.464 67.675 50.443 67.675 50.319 C 67.675 50.183 67.664 50.17 67.545 50.17 L 67.417 50.17 L 67.417 49.095 L 67.417 48.02 L 67.545 48.02 L 67.675 48.02 L 67.675 47.762 L 67.675 47.504 L 67.804 47.504 C 67.932 47.504 67.933 47.503 67.933 47.255 C 67.933 47.018 67.939 47.004 68.062 46.958 L 68.192 46.909 L 68.181 45.518 C 68.172 44.444 68.157 44.127 68.115 44.122 C 68.086 44.119 68.034 44.115 67.999 44.112 C 67.953 44.108 67.933 44.035 67.924 43.837 C 67.912 43.581 67.906 43.568 67.795 43.555 C 67.686 43.543 67.678 43.527 67.666 43.297 C 67.654 43.066 67.647 43.052 67.535 43.039 C 67.436 43.028 67.417 43.005 67.417 42.899 C 67.417 42.788 67.402 42.773 67.288 42.773 C 67.173 42.773 67.159 42.759 67.159 42.644 C 67.159 42.529 67.144 42.515 67.029 42.515 C 66.915 42.515 66.9 42.501 66.9 42.386 C 66.9 42.268 66.888 42.257 66.753 42.257 C 66.617 42.257 66.604 42.245 66.591 42.117 C 66.58 42.001 66.558 41.975 66.46 41.964 C 66.395 41.956 66.341 41.925 66.341 41.894 C 66.341 41.798 66.231 41.739 66.002 41.712 C 65.831 41.692 65.782 41.669 65.782 41.61 C 65.782 41.499 65.68 41.47 65.18 41.443 C 64.766 41.42 64.729 41.411 64.729 41.332 C 64.729 41.272 64.704 41.25 64.649 41.26 C 64.601 41.268 64.581 41.255 64.598 41.227 C 64.618 41.195 64.193 41.183 63.157 41.186 L 61.688 41.192 L 61.578 41.316 C 61.47 41.437 61.458 41.44 61.027 41.44 C 60.598 41.44 60.584 41.443 60.449 41.569 C 60.365 41.648 60.265 41.698 60.192 41.698 C 59.94 41.698 59.804 41.749 59.777 41.854 L 59.752 41.956 L 58.907 41.956 C 57.85 41.957 57.742 41.973 57.681 42.135 C 57.638 42.25 57.62 42.257 57.386 42.257 C 57.139 42.257 57.138 42.257 57.138 42.386 C 57.138 42.515 57.137 42.515 56.883 42.515 C 56.72 42.515 56.621 42.534 56.607 42.569 C 56.59 42.612 56.585 42.612 56.582 42.569 C 56.58 42.538 56.522 42.515 56.45 42.515 C 56.335 42.515 56.321 42.501 56.321 42.386 C 56.321 42.257 56.32 42.257 56.067 42.257 C 55.826 42.257 55.811 42.25 55.77 42.134 C 55.721 41.995 55.586 41.957 55.13 41.956 C 54.892 41.956 54.855 41.944 54.771 41.838 C 54.629 41.656 53.387 41.631 53.457 41.811 C 53.47 41.846 53.464 41.864 53.443 41.851 C 53.423 41.838 53.382 41.857 53.353 41.892 C 53.307 41.947 53.011 41.956 51.24 41.956 C 49.107 41.956 49.155 41.96 49.179 41.789 C 49.184 41.751 49.163 41.739 49.121 41.755 C 49.085 41.769 49.043 41.762 49.03 41.739 C 49.015 41.716 48.928 41.698 48.835 41.698 C 48.675 41.698 48.665 41.69 48.665 41.569 L 48.665 41.44 L 48.407 41.44 L 48.149 41.44 L 48.149 41.311 L 48.149 41.182 L 47.74 41.182 C 47.363 41.182 47.332 41.175 47.332 41.097 C 47.332 41.051 47.293 40.992 47.246 40.967 C 47.128 40.904 45.611 40.913 45.611 40.977 Z  M 46.911 43.565 C 46.989 43.598 47.132 43.648 47.229 43.677 C 47.504 43.758 47.985 44.247 48.081 44.543 C 48.149 44.752 48.364 44.779 48.699 44.62 L 48.946 44.502 L 51.418 44.453 C 52.778 44.425 53.942 44.393 54.004 44.38 C 54.644 44.247 55.554 44.814 55.743 45.464 C 55.853 45.843 56.489 45.982 56.73 45.679 C 56.779 45.618 56.834 45.569 56.853 45.569 C 56.98 45.569 57.656 45.175 57.824 45.003 C 57.931 44.892 58.155 44.729 58.32 44.64 L 58.621 44.478 L 59.611 44.461 C 60.519 44.446 60.836 44.41 60.836 44.32 C 60.836 44.302 60.899 44.247 60.976 44.198 C 61.053 44.149 61.159 44.077 61.212 44.038 C 61.473 43.846 63.9 43.714 64.413 43.863 C 64.546 43.902 64.693 43.934 64.738 43.934 C 64.783 43.934 64.881 43.987 64.955 44.053 C 65.029 44.118 65.158 44.225 65.242 44.291 C 65.327 44.357 65.433 44.484 65.478 44.573 C 65.524 44.663 65.589 44.759 65.624 44.788 C 65.73 44.876 65.799 45.506 65.741 45.873 C 65.681 46.265 65.555 46.478 65.142 46.892 L 64.823 47.211 L 64.846 49.078 L 64.869 50.944 L 65.131 51.197 C 65.534 51.585 65.69 51.845 65.749 52.223 C 65.808 52.603 65.743 53.173 65.622 53.344 C 65.58 53.402 65.517 53.503 65.481 53.567 C 65.361 53.786 65.164 53.952 64.738 54.192 C 64.666 54.233 64.418 54.277 64.115 54.303 C 63.604 54.347 62.39 54.574 62.237 54.655 C 62.127 54.711 61.58 54.707 61.51 54.649 C 61.48 54.624 61.373 54.591 61.272 54.575 C 61.087 54.545 60.826 54.364 60.655 54.147 C 60.492 53.939 60.352 53.903 59.548 53.863 C 59.133 53.842 58.701 53.806 58.587 53.782 C 58.268 53.717 58.177 53.729 57.872 53.879 L 57.589 54.018 L 56.769 54.034 C 55.875 54.051 55.418 54.004 55.166 53.868 C 55.08 53.821 54.941 53.754 54.858 53.718 C 54.71 53.654 54.496 53.511 54.313 53.354 C 54.215 53.269 53.967 53.36 53.556 53.63 C 53.191 53.87 50.105 53.839 49.762 53.592 C 49.691 53.541 49.58 53.473 49.515 53.44 C 49.449 53.408 49.396 53.367 49.396 53.349 C 49.396 53.332 49.33 53.254 49.249 53.178 C 49.168 53.101 49.089 52.992 49.075 52.934 C 48.988 52.589 48.727 52.388 48.542 52.525 C 48.237 52.75 47.524 52.762 47.168 52.549 C 47.057 52.483 46.918 52.407 46.859 52.381 C 46.8 52.355 46.725 52.302 46.692 52.263 C 46.614 52.169 46.583 52.172 46.163 52.307 C 45.735 52.445 45.711 52.461 45.674 52.633 C 45.54 53.242 44.707 53.907 43.847 54.093 L 43.419 54.185 L 42.935 54.088 C 42.344 53.969 42.273 53.939 41.809 53.613 L 41.598 53.464 L 41.143 53.564 C 40.489 53.706 39.371 53.834 38.98 53.811 C 38.695 53.794 38.64 53.803 38.576 53.873 C 38.535 53.918 38.479 53.955 38.452 53.955 C 38.424 53.955 38.306 54.023 38.19 54.106 C 38.073 54.188 37.958 54.256 37.934 54.256 C 37.91 54.256 37.765 54.319 37.611 54.395 C 37.171 54.614 35.468 54.623 35.136 54.408 C 35.087 54.376 34.961 54.325 34.856 54.295 C 34.626 54.228 34.246 53.971 33.923 53.664 C 33.652 53.408 33.544 53.397 33.204 53.589 C 32.97 53.721 32.651 53.784 32.064 53.814 C 31.792 53.828 31.56 53.85 31.548 53.865 C 31.128 54.371 30.07 54.696 29.623 54.455 C 29.558 54.42 29.423 54.351 29.324 54.302 C 28.541 53.915 28.376 53.396 28.424 51.464 C 28.467 49.733 28.477 49.646 28.659 49.381 C 28.807 49.167 28.811 49.15 28.793 48.837 C 28.761 48.284 28.786 47.06 28.833 46.88 C 29.012 46.204 29.094 45.945 29.165 45.84 C 29.209 45.773 29.278 45.651 29.318 45.569 C 29.43 45.336 29.846 44.924 30.11 44.785 C 30.661 44.495 30.715 44.48 31.305 44.461 C 31.799 44.444 31.89 44.43 32.021 44.346 C 32.451 44.07 33.186 43.947 33.472 44.103 C 33.514 44.126 33.649 44.176 33.774 44.215 C 33.898 44.254 33.999 44.301 33.999 44.319 C 33.999 44.338 34.077 44.404 34.171 44.467 C 34.266 44.529 34.344 44.608 34.344 44.641 C 34.344 44.675 34.388 44.737 34.442 44.78 C 34.596 44.904 34.774 45.52 34.774 45.934 C 34.774 46.38 34.862 46.502 35.111 46.398 C 35.224 46.35 35.416 46.332 35.797 46.332 L 36.326 46.333 L 36.48 46.187 C 36.565 46.107 36.657 46.042 36.684 46.042 C 36.71 46.042 36.799 45.996 36.882 45.941 C 36.964 45.885 37.104 45.816 37.193 45.786 C 37.31 45.748 37.384 45.684 37.46 45.554 C 37.859 44.874 38.476 44.699 40.494 44.694 C 41.962 44.691 42.209 44.714 42.601 44.891 C 43.033 45.087 43.189 45.049 43.282 44.724 C 43.447 44.146 44.164 43.758 45.261 43.655 C 45.631 43.62 45.992 43.574 46.063 43.552 C 46.262 43.49 46.753 43.497 46.911 43.565 Z  M 45.961 44.926 C 45.811 44.97 45.475 45.019 45.216 45.035 C 44.538 45.078 44.266 45.362 44.58 45.698 L 44.709 45.837 L 45.286 45.806 C 45.832 45.777 45.865 45.78 45.907 45.86 C 45.96 45.958 45.901 46.416 45.809 46.622 C 45.777 46.693 45.727 46.945 45.698 47.181 C 45.67 47.418 45.599 47.762 45.543 47.947 C 45.486 48.132 45.44 48.344 45.44 48.42 C 45.44 48.601 45.324 49.202 45.27 49.299 C 45.247 49.341 45.207 49.511 45.181 49.677 C 45.111 50.124 45.147 50.103 44.48 50.09 L 43.902 50.078 L 43.744 50.217 C 43.533 50.401 43.532 50.668 43.741 50.77 C 43.902 50.848 44.584 50.932 45.382 50.971 L 45.992 51.001 L 46.124 50.855 C 46.309 50.653 46.305 50.469 46.11 50.286 C 45.93 50.118 45.877 49.909 45.974 49.76 C 46.095 49.576 46.238 49.54 47.328 49.417 C 47.432 49.406 47.541 49.376 47.571 49.351 C 47.634 49.299 47.773 49.462 47.952 49.8 C 48.106 50.093 48.096 50.18 47.882 50.373 C 47.478 50.738 47.492 50.717 47.514 50.951 C 47.558 51.402 47.835 51.431 48.343 51.039 C 48.532 50.893 48.709 50.773 48.736 50.773 C 48.763 50.773 48.896 50.714 49.031 50.644 C 49.165 50.573 49.314 50.514 49.36 50.514 C 49.446 50.514 49.908 50.24 49.967 50.154 C 50.211 49.794 49.753 49.452 49.32 49.672 C 48.981 49.845 48.947 49.846 48.814 49.688 C 48.674 49.522 48.538 49.24 48.537 49.112 C 48.537 49.062 48.489 48.951 48.431 48.866 C 48.373 48.781 48.313 48.638 48.297 48.548 C 48.281 48.459 48.224 48.318 48.169 48.235 C 48.114 48.152 48.047 47.997 48.019 47.891 C 47.991 47.784 47.922 47.618 47.865 47.522 C 47.808 47.425 47.762 47.311 47.762 47.269 C 47.762 47.227 47.704 47.078 47.633 46.938 C 47.562 46.798 47.504 46.663 47.504 46.636 C 47.504 46.61 47.436 46.447 47.353 46.275 C 47.271 46.103 47.203 45.925 47.203 45.879 C 47.203 45.833 47.159 45.73 47.105 45.65 C 47.051 45.57 46.981 45.417 46.949 45.311 C 46.822 44.881 46.522 44.764 45.961 44.926 Z  M 62.394 45.182 C 61.84 45.216 61.697 45.291 61.697 45.545 C 61.697 45.829 61.89 45.999 62.215 45.999 C 62.397 45.999 62.488 46.021 62.572 46.088 L 62.686 46.177 L 62.686 47.289 C 62.686 48.753 62.731 48.672 61.865 48.75 C 61.59 48.774 61.254 48.833 61.116 48.88 C 60.834 48.977 60.514 48.993 60.464 48.912 C 60.414 48.831 60.449 46.718 60.501 46.655 C 60.529 46.622 60.653 46.601 60.822 46.601 C 61.322 46.601 61.572 46.384 61.416 46.083 C 61.285 45.83 61.266 45.827 60.037 45.827 L 58.913 45.827 L 58.798 45.941 C 58.461 46.279 58.698 46.601 59.285 46.601 C 59.711 46.601 59.679 46.386 59.665 49.147 C 59.652 51.948 59.684 51.748 59.255 51.699 C 58.679 51.633 58.382 52.206 58.875 52.432 C 59.235 52.597 60.986 52.642 61.235 52.494 C 61.731 52.199 61.459 51.719 60.797 51.719 C 60.434 51.719 60.431 51.711 60.445 50.713 C 60.458 49.782 60.456 49.792 60.636 49.766 C 60.711 49.755 60.936 49.724 61.137 49.697 C 61.338 49.669 61.58 49.62 61.675 49.587 C 61.933 49.497 62.47 49.466 62.594 49.534 L 62.696 49.59 L 62.716 50.769 C 62.743 52.356 62.732 52.407 62.346 52.407 C 62.114 52.407 61.743 52.591 61.578 52.789 C 61.475 52.913 61.513 53.108 61.664 53.227 C 61.881 53.398 61.886 53.399 62.087 53.292 C 62.211 53.226 62.39 53.181 62.6 53.162 C 62.777 53.146 63.038 53.106 63.18 53.074 C 63.322 53.041 63.628 52.991 63.86 52.963 C 64.408 52.896 64.531 52.742 64.344 52.353 C 64.263 52.182 64.232 52.173 63.841 52.191 C 63.49 52.207 63.511 52.398 63.505 49.074 L 63.499 46.137 L 63.614 46.046 C 63.68 45.994 63.792 45.956 63.876 45.956 C 64.405 45.956 64.619 45.394 64.163 45.203 C 63.996 45.133 63.313 45.125 62.394 45.182 Z  M 32.778 45.521 C 32.675 45.629 32.657 45.686 32.646 45.941 C 32.639 46.103 32.631 46.239 32.629 46.244 C 32.613 46.268 32.12 46.023 32.001 45.932 C 31.874 45.836 31.824 45.827 31.412 45.827 L 30.961 45.827 L 30.771 45.987 C 30.517 46.2 30.387 46.35 30.387 46.429 C 30.387 46.465 30.335 46.591 30.271 46.709 C 30.084 47.055 30.07 48.88 30.254 48.88 C 30.274 48.88 30.316 48.943 30.346 49.02 C 30.489 49.375 31.008 49.674 31.598 49.741 C 32.963 49.896 33.486 50.749 32.639 51.438 C 32.29 51.723 31.586 51.751 31.238 51.493 C 30.769 51.147 30.602 50.869 30.602 50.433 C 30.602 49.999 30.366 49.727 30.073 49.823 C 29.871 49.89 29.839 50.013 29.788 50.924 C 29.693 52.617 29.749 53.138 30.026 53.138 C 30.079 53.138 30.152 53.149 30.188 53.164 C 30.344 53.223 30.558 52.886 30.559 52.579 C 30.56 52.173 30.692 52.053 30.919 52.248 C 31.141 52.439 31.911 52.519 32.451 52.408 C 33.835 52.124 34.333 50.124 33.181 49.476 C 33.087 49.424 33.01 49.365 33.01 49.346 C 33.01 49.328 32.901 49.281 32.768 49.242 C 32.635 49.204 32.466 49.138 32.392 49.095 C 32.31 49.049 32.117 49.008 31.895 48.991 C 31.508 48.961 31.22 48.844 31.026 48.638 C 30.779 48.375 30.872 47.13 31.175 46.655 C 31.237 46.556 31.648 46.587 31.753 46.697 C 31.803 46.751 31.932 46.881 32.04 46.988 C 32.147 47.094 32.235 47.196 32.236 47.215 C 32.236 47.233 32.284 47.32 32.342 47.408 C 32.416 47.52 32.466 47.687 32.507 47.962 C 32.587 48.504 32.743 48.656 33.076 48.517 C 33.304 48.422 33.343 48.168 33.429 46.224 L 33.452 45.696 L 33.298 45.546 C 33.102 45.356 32.943 45.348 32.778 45.521 Z  M 53.074 45.785 C 52.695 45.802 51.667 45.818 50.79 45.821 L 49.194 45.827 L 49.037 45.979 C 48.846 46.165 48.831 46.36 48.969 46.857 C 49.017 47.032 49.076 47.388 49.098 47.647 C 49.163 48.384 49.303 48.59 49.671 48.489 C 49.928 48.418 49.965 48.251 49.877 47.568 C 49.753 46.607 49.755 46.604 50.56 46.602 C 51.379 46.6 51.286 46.314 51.312 48.902 C 51.324 50.108 51.342 51.184 51.351 51.292 C 51.375 51.557 51.255 51.633 50.816 51.633 C 50.348 51.633 50.12 51.819 50.191 52.143 C 50.243 52.382 50.255 52.384 51.542 52.399 C 53.12 52.417 53.268 52.387 53.266 52.05 C 53.265 51.7 53.169 51.633 52.672 51.633 C 52.441 51.633 52.311 51.612 52.244 51.566 L 52.149 51.499 L 52.149 49.103 L 52.149 46.707 L 52.246 46.644 C 52.315 46.599 52.505 46.576 52.913 46.565 C 53.695 46.543 53.697 46.544 53.697 47.119 C 53.697 47.742 53.824 47.999 54.106 47.946 C 54.464 47.879 54.519 47.741 54.547 46.831 C 54.573 46.016 54.561 45.948 54.369 45.83 C 54.212 45.733 54.264 45.735 53.074 45.785 Z  M 39.784 46.04 C 38.749 46.1 38.62 46.143 38.573 46.437 C 38.515 46.802 38.682 46.92 39.192 46.872 C 39.593 46.834 39.59 46.829 39.59 47.635 C 39.59 48.446 39.527 48.659 39.287 48.664 C 38.945 48.671 38.966 49.348 39.311 49.421 C 39.591 49.481 39.59 49.48 39.59 50.562 C 39.59 51.663 39.617 51.583 39.225 51.663 C 38.808 51.748 38.655 52.002 38.823 52.33 C 38.881 52.444 39.158 52.501 39.403 52.451 C 39.518 52.427 39.844 52.389 40.128 52.367 C 41.209 52.281 41.611 51.979 41.204 51.56 C 41.047 51.399 41.03 51.396 40.561 51.469 C 40.396 51.495 40.366 51.326 40.366 50.385 C 40.366 49.217 40.328 49.279 41.1 49.181 C 41.787 49.094 41.966 49.265 42.021 50.063 C 42.105 51.277 42.253 52.06 42.446 52.308 C 42.531 52.417 42.601 52.52 42.601 52.536 C 42.601 52.583 43.284 52.837 43.41 52.837 C 43.561 52.837 44.012 52.622 44.173 52.473 C 44.393 52.271 44.579 51.876 44.579 51.614 C 44.579 51.457 44.561 51.411 44.483 51.371 C 44.429 51.343 44.345 51.284 44.296 51.239 C 44.215 51.166 44.199 51.164 44.15 51.223 C 44.12 51.259 44.072 51.289 44.043 51.289 C 43.96 51.289 43.848 51.436 43.801 51.607 C 43.688 52.016 42.988 52.072 42.988 51.671 C 42.988 50.922 42.731 49.288 42.576 49.054 C 42.426 48.829 42.451 48.608 42.643 48.45 C 42.715 48.391 42.774 48.321 42.773 48.294 C 42.773 48.267 42.805 48.219 42.843 48.187 C 43.109 47.967 43.294 47.243 43.157 46.96 C 42.778 46.177 41.832 45.919 39.784 46.04 Z  M 57.621 46.697 C 57.5 46.85 57.439 47.047 57.439 47.287 C 57.439 47.466 57.422 47.547 57.385 47.546 C 57.3 47.546 56.836 47.391 56.601 47.286 C 56.269 47.137 55.746 47.145 55.509 47.302 C 55.412 47.366 55.315 47.418 55.292 47.418 C 55.237 47.418 54.902 47.772 54.902 47.832 C 54.901 47.858 54.854 47.965 54.797 48.068 C 54.449 48.694 54.451 51.46 54.799 51.836 C 54.855 51.896 54.901 51.969 54.901 51.997 C 54.901 52.025 54.959 52.1 55.03 52.163 C 55.101 52.227 55.159 52.296 55.159 52.318 C 55.159 52.34 55.203 52.371 55.256 52.387 C 55.309 52.404 55.395 52.455 55.447 52.502 C 55.643 52.682 56.684 52.775 57.232 52.66 C 57.439 52.618 57.998 52.305 57.998 52.233 C 57.998 52.217 58.046 52.152 58.106 52.088 C 58.221 51.964 58.342 51.753 58.342 51.676 C 58.342 51.65 58.385 51.57 58.438 51.499 C 58.527 51.379 58.535 51.321 58.535 50.809 L 58.535 50.249 L 58.415 50.145 C 58.224 49.981 57.906 50.015 57.832 50.207 C 57.808 50.269 57.779 50.495 57.768 50.708 C 57.737 51.303 57.436 51.807 57.061 51.895 C 56.343 52.061 55.573 51.802 55.408 51.337 C 55.335 51.13 55.338 49.008 55.412 48.662 C 55.612 47.73 56.62 47.812 57.44 48.828 C 57.658 49.098 57.859 49.149 58.055 48.983 C 58.246 48.822 58.256 48.762 58.256 47.808 L 58.256 47.005 L 58.123 46.824 C 57.983 46.634 57.725 46.568 57.621 46.697 Z  M 41.75 46.818 C 42.128 46.861 42.201 46.896 42.334 47.1 L 42.43 47.246 L 42.318 47.468 C 42.192 47.716 41.95 47.966 41.798 48.004 C 41.743 48.018 41.698 48.043 41.698 48.061 C 41.698 48.098 41.452 48.18 41.182 48.232 C 41.075 48.252 40.886 48.314 40.761 48.369 C 40.396 48.529 40.388 48.514 40.374 47.655 C 40.358 46.629 40.317 46.654 41.75 46.818 Z  M 46.789 47.21 C 46.885 47.32 46.945 47.445 47.017 47.69 C 47.053 47.812 47.107 47.941 47.137 47.977 C 47.167 48.013 47.23 48.163 47.278 48.312 C 47.39 48.667 47.35 48.721 46.88 48.843 C 46.118 49.041 46.114 49.037 46.296 48.327 C 46.369 48.044 46.429 47.744 46.429 47.66 C 46.429 47.517 46.494 47.13 46.542 46.988 C 46.559 46.937 46.582 46.947 46.645 47.031 C 46.689 47.09 46.754 47.171 46.789 47.21 Z  M 37.359 47.241 C 37.309 47.291 37.266 47.366 37.264 47.407 C 37.262 47.448 37.255 47.569 37.249 47.676 C 37.23 48.022 37.126 48.181 37.01 48.042 C 36.98 48.006 36.94 47.977 36.92 47.977 C 36.9 47.977 36.752 47.915 36.592 47.838 C 36.322 47.71 36.267 47.7 35.849 47.699 L 35.397 47.697 L 35.15 47.865 C 35.014 47.957 34.903 48.049 34.903 48.069 C 34.903 48.089 34.847 48.155 34.778 48.216 C 34.705 48.282 34.632 48.409 34.6 48.528 C 34.57 48.639 34.527 48.753 34.506 48.781 C 34.321 49.02 34.255 51.663 34.426 51.977 C 34.471 52.06 34.549 52.217 34.601 52.327 C 34.652 52.436 34.738 52.565 34.793 52.612 C 34.848 52.659 34.899 52.717 34.908 52.74 C 34.917 52.763 35.06 52.866 35.225 52.97 L 35.526 53.158 L 36.343 53.159 L 37.161 53.159 L 37.315 53.041 C 37.4 52.976 37.495 52.923 37.527 52.923 C 37.934 52.923 38.423 51.606 38.313 50.805 C 38.266 50.461 37.968 50.344 37.694 50.561 L 37.526 50.694 L 37.526 51.131 C 37.525 51.782 37.262 52.288 36.872 52.386 C 36.645 52.443 35.728 52.391 35.668 52.318 C 35.637 52.281 35.557 52.216 35.491 52.175 C 35.424 52.133 35.349 52.043 35.325 51.974 C 35.301 51.904 35.266 51.848 35.248 51.848 C 35.078 51.848 35.062 49.495 35.23 49.138 C 35.28 49.032 35.334 48.896 35.349 48.837 C 35.441 48.479 35.839 48.354 36.244 48.558 C 36.362 48.617 36.484 48.665 36.516 48.665 C 36.595 48.665 36.931 48.961 37.166 49.235 C 37.442 49.558 37.65 49.623 37.895 49.462 L 38.005 49.391 L 37.991 48.342 C 37.982 47.604 37.962 47.278 37.926 47.242 C 37.825 47.141 37.46 47.14 37.359 47.241 Z " fill-rule="evenodd" fill="rgb(255,255,255)"/></g></g></g></svg>